<svg width="56" height="56" viewBox="0 0 56 56" fill="none" xmlns="http://www.w3.org/2000/svg">
<rect width="56" height="56" fill="#3D55F9"/>
<path d="M46.8192 7.58264C44.3341 2.60104 38.2812 0.577173 33.2997 3.06223C32.3241 3.54878 31.4342 4.19032 30.6643 4.96184L28.6729 6.9532C28.2355 7.39043 27.5265 7.39043 27.0893 6.9532L25.0957 4.96184C21.1567 1.02287 14.7703 1.02285 10.8313 4.96184C6.89234 8.90081 6.89232 15.2872 10.8313 19.2262L25.8169 34.8591C26.9094 35.9986 28.7189 36.0364 29.8581 34.944C29.887 34.9162 29.9152 34.888 29.943 34.8591L44.9286 19.2262C48.001 16.1574 48.7628 11.4659 46.8192 7.58264Z" fill="white"/>
<path d="M10.2378 37.4779C8.89703 38.373 8.4534 40.1388 9.21184 41.5614L12.2 46.5275C12.5192 47.0577 12.3482 47.7461 11.8181 48.0653C11.288 48.3845 10.5995 48.2136 10.2803 47.6833L7.25184 42.6433C6.33653 40.8726 6.44347 38.7469 7.53184 37.0769C7.65394 36.8939 7.71939 36.6789 7.72 36.4587V30.0053C7.72 28.1496 6.21568 26.6453 4.36 26.6453C2.50432 26.6453 1 28.1496 1 30.0053V41.5883L1 41.5905C1 43.88 1.77943 46.1015 3.21002 47.889L9.176 55.3441C9.38817 55.6098 9.70957 55.7648 10.0496 55.7653H18.92C19.5386 55.7653 20.04 55.2637 20.04 54.6453V47.9029L20.04 47.9026C20.0419 45.9093 19.4517 43.9602 18.3443 42.3029C14.1174 37.9013 12.7958 35.771 10.2378 37.4779Z" fill="white"/>
<path d="M51.4 26.6453C49.5444 26.6453 48.04 28.1496 48.04 30.0053V36.4587C48.0406 36.6789 48.1061 36.8939 48.2281 37.0769C49.3165 38.7469 49.4234 40.8726 48.5081 42.6433L45.4797 47.6833C45.1605 48.2136 44.4721 48.3845 43.9419 48.0653C43.4117 47.7461 43.2408 47.0577 43.56 46.5275L46.5481 41.5614C47.3066 40.1388 46.8629 38.373 45.5222 37.4779C42.9641 35.771 41.6425 37.9013 37.4157 42.3096C36.3082 43.9672 35.718 45.9162 35.72 47.9096V54.6453C35.72 55.2637 36.2215 55.7653 36.84 55.7653H45.7104C46.0504 55.7648 46.3718 55.6098 46.584 55.3441L52.5513 47.8872C53.9816 46.0992 54.7604 43.8778 54.76 41.5883V30.0053C54.76 28.1496 53.2556 26.6453 51.4 26.6453Z" fill="white"/>
</svg>
