<svg width="56" height="56" viewBox="0 0 56 56" fill="none" xmlns="http://www.w3.org/2000/svg">
<rect width="56" height="56" fill="#3D55F9"/>
<path d="M32.8881 2.05025C35.6218 4.78392 35.6218 9.21608 32.8881 11.9497C30.1543 14.6834 25.7222 14.6834 22.9886 11.9497C20.2549 9.21608 20.2549 4.78392 22.9886 2.05025C25.7222 -0.683415 30.1543 -0.683415 32.8881 2.05025Z" fill="white"/>
<path d="M54.6434 21.014C53.1587 19.7762 50.9516 19.9763 49.714 21.461C49.7135 21.4614 49.7133 21.4617 49.713 21.462C48.6868 22.6928 47.1716 23.4103 45.569 23.4243H45.5154C43.9317 23.425 42.4265 22.7359 41.3924 21.5367C39.6144 19.488 39.6144 19.4694 39.4557 19.313C38.2942 18.1489 36.7159 17.4963 35.0714 17.5H20.7307H20.7307C19.0867 17.4959 17.5092 18.1486 16.3487 19.313C16.1877 19.4694 16.162 19.5184 14.412 21.5367C13.3769 22.736 11.8709 23.425 10.2867 23.4243H10.233C8.63128 23.4117 7.11597 22.696 6.08902 21.4667C4.78826 20.0368 2.57462 19.9322 1.14479 21.233C-0.20071 22.4571 -0.384308 24.5077 0.722355 25.9513C3.06236 28.7555 6.51558 30.391 10.1677 30.4243H10.2867C13.4412 30.4376 16.4797 29.2353 18.7707 27.0667C19.0057 26.8464 19.3749 26.8583 19.5952 27.0933C19.6964 27.2011 19.7528 27.3434 19.753 27.4913L19.7834 39.76C19.785 40.2537 20.0971 40.6929 20.5627 40.8567L27.1264 43.1737C27.6285 43.3508 28.1759 43.3508 28.678 43.1737L35.2394 40.8567C35.7049 40.6929 36.0171 40.2537 36.0187 39.76L36.049 27.4867C36.0495 27.1644 36.3111 26.9038 36.6333 26.9043C36.7812 26.9045 36.9233 26.9607 37.0314 27.062C39.3225 29.2301 42.3609 30.4318 45.5154 30.4173H45.6344C49.2916 30.3861 52.7499 28.7467 55.089 25.935C56.3215 24.4519 56.122 22.2515 54.6434 21.014Z" fill="white"/>
<path d="M41.5977 41.0946L32.9644 44.1419C32.7317 44.2234 32.5761 44.4434 32.577 44.6903C32.5773 44.9369 32.7322 45.1572 32.9644 45.2409L37.946 47.0003C38.7557 47.2833 39.4923 47.7432 40.102 48.3466C40.4198 48.6609 40.8893 48.7659 41.3107 48.6173L43.924 47.6839C45.7356 47.0096 46.6578 44.9945 45.9837 43.1829C45.325 41.4131 43.3813 40.4849 41.5907 41.0853L41.5977 41.0946Z" fill="white"/>
<path d="M37.1713 49.2011L14.2067 41.0951C12.3951 40.4207 10.3799 41.3429 9.70572 43.1545C9.03153 44.9661 9.95359 46.9814 11.7652 47.6555C11.801 47.6688 11.8371 47.6816 11.8733 47.6937L34.838 55.7997C35.2125 55.9332 35.6071 56.0011 36.0047 56.0004C37.9376 55.9995 39.504 54.4319 39.5033 52.499C39.5026 51.0169 38.5685 49.6957 37.1713 49.2011Z" fill="white"/>
</svg>
