<svg width="56.000000" height="56.000000" viewBox="0 0 56 56" fill="none" xmlns="http://www.w3.org/2000/svg" xmlns:xlink="http://www.w3.org/1999/xlink">
	<desc>
			Created with Pixso.
	</desc>
	<defs/>
	<circle id="Эллипс 1" cx="28.000000" cy="28.000000" r="28.000000" fill="#3D55F9" fill-opacity="1.000000"/>
	<path id="3" d="M27.16 27.01L25.8 27.01L25.8 28.48L27.16 28.48Q28.6 28.5 29.36 29.16Q29.52 29.31 29.65 29.48Q30.12 30.1 30.12 31.07Q30.12 32.24 29.54 32.91Q29.49 32.97 29.43 33.03Q29.39 33.07 29.36 33.1Q28.67 33.72 27.42 33.72Q26.35 33.72 25.66 33.2Q25.55 33.13 25.46 33.04Q25.23 32.83 25.07 32.57Q24.73 32.01 24.73 31.25L22.91 31.25Q22.91 32.31 23.36 33.13Q23.67 33.67 24.17 34.11Q24.34 34.25 24.53 34.38Q25.7 35.19 27.42 35.19Q29.07 35.19 30.21 34.43Q30.46 34.26 30.68 34.07Q31.06 33.72 31.33 33.3Q31.93 32.35 31.93 31.03Q31.93 29.97 31.46 29.19Q31.38 29.06 31.29 28.93Q31.19 28.8 31.08 28.68Q30.47 28.01 29.48 27.7Q30.18 27.41 30.69 26.91Q30.92 26.68 31.11 26.4Q31.62 25.66 31.7 24.88Q31.71 24.74 31.71 24.6Q31.71 23.11 31 22.13Q30.81 21.87 30.57 21.65Q30.48 21.57 30.4 21.49Q29.28 20.58 27.41 20.58Q25.99 20.58 24.93 21.21Q24.58 21.42 24.28 21.7Q23.68 22.23 23.38 22.9Q23.04 23.63 23.04 24.51L24.85 24.51Q24.85 23.72 25.2 23.16Q25.34 22.93 25.54 22.73Q25.67 22.62 25.8 22.52Q26.45 22.07 27.41 22.07Q28.66 22.07 29.28 22.69Q29.91 23.31 29.91 24.57Q29.91 25.33 29.56 25.87Q29.4 26.13 29.17 26.33Q29.16 26.35 29.14 26.36Q28.41 26.99 27.16 27.01Z" fill="#FFFFFF" fill-opacity="1.000000" fill-rule="evenodd"/>
</svg>
