<svg width="56.000000" height="56.000000" viewBox="0 0 56 56" fill="none" xmlns="http://www.w3.org/2000/svg" xmlns:xlink="http://www.w3.org/1999/xlink">
	<desc>
			Created with Pixso.
	</desc>
	<defs/>
	<circle id="Эллипс 1" cx="28.000000" cy="28.000000" r="28.000000" fill="#3D55F9" fill-opacity="1.000000"/>
	<path id="2" d="M23.18 35L32.49 35L32.49 33.52L25.35 33.52L29.16 29.39Q31.84 26.49 31.84 24.39Q31.84 23.25 31.34 22.41Q31.08 21.97 30.69 21.62Q30.61 21.55 30.52 21.48Q29.39 20.58 27.55 20.58Q25.8 20.58 24.64 21.4Q24.39 21.58 24.17 21.79Q23.77 22.18 23.49 22.64Q22.9 23.63 22.9 24.97L24.71 24.97Q24.71 23.74 25.31 23Q25.38 22.91 25.46 22.83Q25.57 22.72 25.69 22.62Q26.4 22.07 27.55 22.07Q28.35 22.07 28.92 22.43Q29.15 22.57 29.35 22.78Q29.53 22.97 29.67 23.2Q30.02 23.8 30.02 24.6Q30.02 24.82 30 25.02Q29.92 25.63 29.61 26.21Q29.19 26.99 28.1 28.23L23.18 33.7L23.18 35Z" fill="#FFFFFF" fill-opacity="1.000000" fill-rule="evenodd"/>
</svg>
